<?xml version="1.0" encoding="UTF-8" standalone="no"?>
<svg
   width="1221"
   height="1334"
   overflow="hidden"
   version="1.1"
   id="svg19"
   sodipodi:docname="logo.svg"
   inkscape:version="1.2.2 (b0a8486541, 2022-12-01)"
   xmlns:inkscape="http://www.inkscape.org/namespaces/inkscape"
   xmlns:sodipodi="http://sodipodi.sourceforge.net/DTD/sodipodi-0.dtd"
   xmlns="http://www.w3.org/2000/svg"
   xmlns:svg="http://www.w3.org/2000/svg">
  <sodipodi:namedview
     id="namedview21"
     pagecolor="#ffffff"
     bordercolor="#000000"
     borderopacity="0.25"
     inkscape:showpageshadow="2"
     inkscape:pageopacity="0.0"
     inkscape:pagecheckerboard="0"
     inkscape:deskcolor="#d1d1d1"
     showgrid="false"
     inkscape:zoom="0.28898051"
     inkscape:cx="275.10506"
     inkscape:cy="330.47211"
     inkscape:window-width="1920"
     inkscape:window-height="945"
     inkscape:window-x="0"
     inkscape:window-y="32"
     inkscape:window-maximized="1"
     inkscape:current-layer="g17" />
  <defs
     id="defs5">
    <clipPath
       id="clip0">
      <rect
         x="1669"
         y="454"
         width="1221"
         height="1334"
         id="rect2" />
    </clipPath>
  </defs>
  <g
     clip-path="url(#clip0)"
     transform="matrix(1.2050145,0,0,1.1702082,-2011.1692,-758.33231)"
     id="g17">
    <path
       d="m 2164,798 c 68.35,0 133.46,13.851 192.68,38.899 l 1.16,0.562 -24.21,52.442 -39.61,-14.495 C 2252.95,862.632 2209.28,855.75 2164,855.75 c -241.49,0 -437.25,195.76 -437.25,437.25 0,241.49 195.76,437.25 437.25,437.25 241.49,0 437.25,-195.76 437.25,-437.25 0,-90.56 -27.53,-174.69 -74.68,-244.47 l -15.8,-21.13 46.9,-33.62 16.79,22.46 c 53.37,79 84.54,174.24 84.54,276.76 0,273.38 -221.62,495 -495,495 -273.38,0 -495,-221.62 -495,-495 0,-273.38 221.62,-495 495,-495 z"
       fill="#f7c13a"
       fill-rule="evenodd"
       fill-opacity="0.811765"
       id="path7"
       style="fill:#000000;fill-opacity:1" />
    <path
       d="M 23.4182,-20.2167 274.014,270.063 c 11.165,12.933 9.732,32.469 -3.202,43.635 -12.933,11.165 -32.469,9.732 -43.635,-3.202 L -23.4182,20.2167 c -11.1654,-12.93349 -9.7321,-32.4695 3.2015,-43.6349 12.93349,-11.1654 32.4695,-9.7321 43.6349,3.2015 z M 282.629,126.054 281.297,325.842 83.4537,298.001 C 66.5341,295.62 54.7482,279.973 57.1292,263.054 c 2.381,-16.92 18.0273,-28.706 34.9469,-26.325 l 162.8309,22.915 -35.248,30.429 1.097,-164.431 c 0.114,-17.086 14.057,-30.8449 31.143,-30.7309 17.086,0.114 30.844,14.0569 30.73,31.1429 z"
       fill="#f7c13a"
       transform="matrix(1,0,0,-1,2398,989.875)"
       id="path9"
       style="fill:#000000;fill-opacity:1" />
    <path
       d="m 2253.5064,1112.0019 c 0,-27.61 22.39,-50 50,-50 27.61,0 50,22.39 50,50 0,27.61 -22.39,50 -50,50 -27.61,0 -50,-22.39 -50,-50 z"
       fill="#f7c13a"
       fill-rule="evenodd"
       id="path11"
       style="fill:#000000;fill-opacity:1" />
    <path
       d="m 2117.5186,1277.7303 c 0,-27.61 22.39,-50 50,-50 27.61,0 50,22.39 50,50 0,27.61 -22.39,50 -50,50 -27.61,0 -50,-22.39 -50,-50 z"
       fill="#f7c13a"
       fill-rule="evenodd"
       id="path13"
       style="fill:#000000;fill-opacity:1" />
    <path
       d="m 1971.4074,1452.9674 c 0,-27.61 22.16,-50 49.5,-50 27.34,0 49.5,22.39 49.5,50 0,27.61 -22.16,50 -49.5,50 -27.34,0 -49.5,-22.39 -49.5,-50 z"
       fill="#f7c13a"
       fill-rule="evenodd"
       id="path15"
       style="fill:#000000;fill-opacity:1" />
  </g>
</svg>
